<mxfile host="65bd71144e">
    <diagram id="fOKxyn6eRORkYnOrvaVq" name="Mutex">
        <mxGraphModel dx="672" dy="599" grid="1" gridSize="10" guides="1" tooltips="1" connect="1" arrows="1" fold="1" page="1" pageScale="1" pageWidth="850" pageHeight="1100" math="0" shadow="0">
            <root>
                <mxCell id="0"/>
                <mxCell id="1" parent="0"/>
                <mxCell id="14" value="2. Yes" style="edgeStyle=none;html=1;" edge="1" parent="1" source="2" target="4">
                    <mxGeometry relative="1" as="geometry">
                        <Array as="points">
                            <mxPoint x="260" y="200"/>
                        </Array>
                    </mxGeometry>
                </mxCell>
                <mxCell id="17" value="4. No" style="edgeStyle=none;html=1;" edge="1" parent="1" source="2" target="7">
                    <mxGeometry relative="1" as="geometry">
                        <Array as="points">
                            <mxPoint x="450" y="320"/>
                        </Array>
                    </mxGeometry>
                </mxCell>
                <mxCell id="2" value="SERVER" style="ellipse;whiteSpace=wrap;html=1;aspect=fixed;" vertex="1" parent="1">
                    <mxGeometry x="280" y="240" width="80" height="80" as="geometry"/>
                </mxCell>
                <mxCell id="10" value="1. Can have mutex?" style="edgeStyle=none;html=1;exitX=1;exitY=1;exitDx=0;exitDy=0;" edge="1" parent="1" source="4" target="2">
                    <mxGeometry relative="1" as="geometry">
                        <Array as="points">
                            <mxPoint x="220" y="230"/>
                        </Array>
                    </mxGeometry>
                </mxCell>
                <mxCell id="4" value="Node" style="rhombus;whiteSpace=wrap;html=1;" vertex="1" parent="1">
                    <mxGeometry x="120" y="120" width="80" height="80" as="geometry"/>
                </mxCell>
                <mxCell id="5" value="Node" style="rhombus;whiteSpace=wrap;html=1;" vertex="1" parent="1">
                    <mxGeometry x="410" y="110" width="80" height="80" as="geometry"/>
                </mxCell>
                <mxCell id="6" value="Node" style="rhombus;whiteSpace=wrap;html=1;" vertex="1" parent="1">
                    <mxGeometry x="110" y="380" width="80" height="80" as="geometry"/>
                </mxCell>
                <mxCell id="15" value="3. Can have mutex?" style="edgeStyle=none;html=1;" edge="1" parent="1" source="7" target="2">
                    <mxGeometry relative="1" as="geometry">
                        <Array as="points">
                            <mxPoint x="400" y="360"/>
                        </Array>
                    </mxGeometry>
                </mxCell>
                <mxCell id="7" value="Node" style="rhombus;whiteSpace=wrap;html=1;" vertex="1" parent="1">
                    <mxGeometry x="460" y="360" width="80" height="80" as="geometry"/>
                </mxCell>
                <mxCell id="8" value="Node" style="rhombus;whiteSpace=wrap;html=1;" vertex="1" parent="1">
                    <mxGeometry x="250" y="460" width="80" height="80" as="geometry"/>
                </mxCell>
                <mxCell id="9" value="Node" style="rhombus;whiteSpace=wrap;html=1;" vertex="1" parent="1">
                    <mxGeometry x="270" y="50" width="80" height="80" as="geometry"/>
                </mxCell>
            </root>
        </mxGraphModel>
    </diagram>
</mxfile>